#!OML:ASF F:\VICON\USERDATA\INSTALL\rory3\rory3.ASF
:FULLY-SPECIFIED
:DEGREES
46
root 0.7404685154127831 17.9183734502819 26.714204772060192 -3.1987372425735514 -0.5072757824583061 0.8055552136231507
lfemur 6.794585117172154 -4.287873547591701 -23.021930105927545
ltibia 33.82489872934644
lfoot -1.9996217335665616 -4.818440160323064
ltoes -4.652381532596327
rfemur -22.88789637005186 1.7029095456081436 20.16299791429896
rtibia 38.77616826839741
rfoot -9.815434929960057 -3.5363900328922178
rtoes 7.6222326988439235
lowerback 1.0 -0.9312992917800469 -1.623562348946145
upperback 0.42733206755365155 -1.299525165930545 1.797624443115247
thorax -5.107115486879981 -0.577978763278396 3.137456437937221
lowerneck -16.270647544109547 -2.5912767290086047 -1.943808732924729
upperneck 23.894261552254978 -2.9771706370159277 -0.39172500687376605
head 10.397066051490178 -1.6025695486543885 -0.21379003846438088
lclavicle -1.870798667534829e-15 -1.5781664150309733e-16
lhumerus -25.730093710204343 -2.2827452514269675 81.70483672506344
lradius 24.193844722263574
lwrist 4.967226666654609
lhand -27.97687300677387 22.66734454532749
lfingers nan
lthumb -1.060446856870625 52.72130554498643
rclavicle -1.9178893630166118e-15 -1.8272790050462998e-16
rhumerus -37.14294091361735 -28.219718405505688 -75.57460894149058
rradius 28.739877595905853
rwrist 0.17322785176521904
rhand -17.82244300926035 1.0
rfingers nan
rthumb 8.621491058898828 -7.766988768588232
47
root 0.8072458598893272 17.928266438619776 28.524243872884753 -3.1740198840023615 -0.6626137943545372 -0.20530433337219778
lfemur 5.2876558319633205 -3.970200617031776 -21.658017257354544
ltibia 38.28080941482159
lfoot -2.980764576647256 -3.7717393191377804
ltoes -3.394043564422996
rfemur -22.26739024283399 2.1183103864238833 21.67320586666197
rtibia 37.2671496927855
rfoot -11.26029702460868 -5.1192518253919905
rtoes 7.202621130988524
lowerback 1.0 -0.982595987226919 -0.7875691096079962
upperback 0.3267496731950698 -1.2232519140388425 2.0228424419666786
thorax -5.201016040520766 -0.5592670045423608 3.032495280988546
lowerneck -16.267532316795478 -2.5944898276939554 -1.9259971372483298
upperneck 23.938000770597633 -2.982567919897623 -0.4722595904563682
head 10.394129774781007 -1.6099910280522876 -0.2473422354549507
lclavicle -1.86858225457426e-15 -1.5651686807856037e-16
lhumerus -26.245269887682298 -1.8680055108688363 81.98909003160753
lradius 21.91077213074669
lwrist 5.638846678657908
lhand -28.069756842663136 22.57621393191322
lfingers nan
lthumb -1.2181141435164442 52.60471277374116
rclavicle -1.9187888359965715e-15 -1.8455758773259455e-16
rhumerus -37.28929390485963 -29.304685838694613 -73.86572295952718
rradius 29.14758219727309
rwrist 2.849609673678064
rhand -17.828719264341423 1.0
rfingers nan
rthumb 8.676983690318512 -7.644201237696124
48
root 0.8577100132337134 17.93310755376139 30.239972861911852 -3.1290381829872325 -0.9343122302014634 -1.338077469734124
lfemur 3.2792027333296456 -3.460545334687255 -19.990529521800696
ltibia 43.020934101875014
lfoot -3.9966333545776576 -2.4112463500530654
ltoes -3.0800467019740556
rfemur -21.357458911003896 2.7740210020234812 23.355223124191916
rtibia 36.223317306906324
rfoot -13.094036556960885 -6.786036353958532
rtoes 6.659820848015223
lowerback 1.0 -0.9977166456686009 0.05904344691332075
upperback 0.21764915284547617 -1.081182385395531 2.243522034438408
thorax -5.326545052238796 -0.5073907007342364 2.9054202290811677
lowerneck -16.289884738985535 -2.5930904107459547 -1.8654350056854472
upperneck 23.898912828522377 -2.9898905011216454 -0.5451094147650927
head 10.3643361191352 -1.6190976710229248 -0.28196050897950586
lclavicle -1.8691356500304475e-15 -1.5763399900817628e-16
lhumerus -26.92006970472166 -1.2654285493661064 82.26047868338085
lradius 20.216438686400256
lwrist 6.098810582451003
lhand -28.089576250139324 22.52536153039218
lfingers nan
lthumb -1.29210799043814 52.4851918347532
rclavicle -1.9172097824547354e-15 -1.845730668902036e-16
rhumerus -37.096211089318906 -30.37453460708518 -72.32795201874717
rradius 29.280261639355814
rwrist 5.83557613004656
rhand -17.866894616571752 1.0
rfingers nan
rthumb 8.627582756537397 -7.732838470178176
49
root 0.8966649060096803 17.930451191801186 31.638616194151133 -3.2527765619424307 -1.3770513536655091 -2.1511030798281694
lfemur 1.187561177898175 -2.771650402656084 -18.44187852435447
ltibia 47.40189452957444
lfoot -4.892324559475735 -1.262867684824389
ltoes -3.6616596848447593
rfemur -19.168835340829553 3.5114653834088942 25.259923702190406
rtibia 34.89498860244317
rfoot -15.177682478643705 -8.461551284908246
rtoes 5.466307412039985
lowerback 1.0 -0.831893921914981 0.6859662558085602
upperback 0.1799749936158314 -0.7638090665740387 2.360222676049294
thorax -5.3805582246421535 -0.3457794864824205 2.77660877397693
lowerneck -16.337786173079436 -2.6062733359408483 -1.7982585885750413
upperneck 23.8643606555456 -3.015938804354593 -0.5894503867013324
head 10.337692756730467 -1.6326690188312083 -0.3099361385305454
lclavicle -1.8677997907911105e-15 -1.5733440837819677e-16
lhumerus -27.82514555055447 -0.49914231673669995 82.53107159696978
lradius 19.325239113448436
lwrist 6.248698742563015
lhand -28.11076952300602 22.490806512419738
lfingers nan
lthumb -1.2967794244496067 52.503437038999515
rclavicle -1.915329037315302e-15 -1.84639081299543e-16
rhumerus -36.59663111288771 -31.300595154600252 -71.1212306449965
rradius 29.194013752479883
rwrist 7.7935406820502315
rhand -17.919324510164575 1.0
rfingers nan
rthumb 8.565293860274338 -7.844497321125988
50
root 0.9177265311678997 17.91865374326545 32.582061185544845 -3.366585283958541 -1.5946400404686067 -3.2034561549382836
lfemur -1.6590804457057917 -2.0398121381964742 -16.409091332278134
ltibia 51.61357801020539
lfoot -5.6303031802082035 -0.014743530569183427
ltoes -4.380178288305224
rfemur -16.98876291878918 4.333853383783429 27.1222216078952
rtibia 33.612039178331905
rfoot -16.89768380791407 -9.866667646277836
rtoes 3.624801991679879
lowerback 1.0 -0.6668317294550716 1.4893409594323184
upperback 0.1922773439417243 -0.29958900255950727 2.5515107645834494
thorax -5.428280003723737 -0.10178756145009316 2.474587924809562
lowerneck -16.358044043110358 -2.6288987103412755 -1.7349194526944658
upperneck 23.72748362969228 -3.066452056154998 -0.6078777337682211
head 10.278959246682835 -1.654226849418462 -0.33569979084701773
lclavicle -1.863424162777622e-15 -1.5467137774790142e-16
lhumerus -28.996346296406703 0.3557668563752161 82.79240421415841
lradius 19.091014936735185
lwrist 6.370138107371085
lhand -28.070790070163056 22.660473405607977
lfingers nan
lthumb -1.2800849548499147 52.63247398154623
rclavicle -1.9141264520371513e-15 -1.8542746218674141e-16
rhumerus -35.78385190434659 -31.813573356344634 -70.34525675949665
rradius 28.94981958608351
rwrist 8.398943966639251
rhand -17.988373693029136 1.0
rfingers nan
rthumb 8.451008903329816 -8.08512357619845
